<svg xmlns="http://www.w3.org/2000/svg" width="87.185" height="87.185" viewBox="0 0 87.185 87.185">
  <g id="user_3_" data-name="user (3)" transform="translate(0.001 0)">
    <path id="Path_18" data-name="Path 18" d="M87.184,43.592A43.593,43.593,0,1,1,43.592,0,43.484,43.484,0,0,1,87.184,43.592Zm0,0" transform="translate(0 0)" fill="#ffaa20"/>
    <path id="Path_19" data-name="Path 19" d="M299.592,43.592A43.591,43.591,0,0,1,256,87.185V0a43.594,43.594,0,0,1,43.592,43.592Zm0,0" transform="translate(-212.408)" fill="#ff8900"/>
    <path id="Path_20" data-name="Path 20" d="M142.24,301v.174a43.594,43.594,0,0,1-58.752,0V301a29.376,29.376,0,0,1,58.752,0Zm0,0" transform="translate(-69.272 -225.369)" fill="#7985eb"/>
    <path id="Path_21" data-name="Path 21" d="M285.376,301v.174A43.439,43.439,0,0,1,256,312.554V271.621A29.374,29.374,0,0,1,285.376,301Zm0,0" transform="translate(-212.408 -225.369)" fill="#4b5be6"/>
    <path id="Path_22" data-name="Path 22" d="M186.226,107.13a18.017,18.017,0,1,1-18.017-18.017A18.038,18.038,0,0,1,186.226,107.13Zm0,0" transform="translate(-124.616 -73.939)" fill="#ffdba9"/>
    <path id="Path_23" data-name="Path 23" d="M274.017,107.131A18.038,18.038,0,0,1,256,125.149V89.114a18.037,18.037,0,0,1,18.017,18.017Zm0,0" transform="translate(-212.408 -73.94)" fill="#ffc473"/>
  </g>
</svg>
